<svg width="512" height="512" viewBox="0 0 512 512" fill="none" xmlns="http://www.w3.org/2000/svg">
<rect width="512" height="512" fill="white"/>
<path d="M176.901 506.995C144.537 506.995 114.518 500.558 89.0023 487.498C45.3809 465.15 16.5816 424.041 5.69972 368.401C-5.93264 308.622 0.352606 242.957 23.5234 183.363C47.6324 121.285 88.8147 70.2428 139.472 39.6177C185.063 12.0271 242.005 0.347304 299.791 6.69305C357.296 13.0388 410.298 36.5828 448.854 73.1858C516.396 137.103 530.28 219.23 487.972 304.392C453.451 374.103 383.657 439.951 305.889 476.278C262.361 496.695 217.802 506.995 176.901 506.995ZM269.116 17.3612C224.369 17.3612 181.498 28.6732 145.851 50.1939C97.4451 79.4395 58.0452 128.366 34.9682 187.869C12.7354 245.257 6.63781 308.53 17.8011 366.01C28.0263 418.523 53.8238 455.678 94.537 476.462C148.102 503.869 227.089 499.454 300.636 465.058C375.964 429.835 443.507 366.102 476.997 298.781C505.045 242.314 521.556 158.807 440.411 82.1066C403.732 47.4349 353.262 24.9945 298.384 18.9247C288.722 17.9131 278.872 17.3612 269.116 17.3612ZM174.931 490.441C146.132 490.441 119.396 484.647 96.6946 473.059C58.0452 453.287 32.5291 416.776 22.8668 367.665C12.5478 314.876 17.9887 256.752 38.2515 203.963C44.0676 188.881 51.0095 174.35 58.9833 160.647C79.9965 124.871 108.327 95.3499 140.879 75.4849C181.404 50.6538 232.061 39.9856 283.375 45.3197C334.313 50.7457 381.311 71.4384 415.552 103.719C447.259 133.608 465.646 167.636 470.43 204.883C474.651 237.807 468.085 272.663 451.011 308.346C420.524 371.987 358.234 431.49 288.44 463.587C250.166 481.428 210.954 490.441 174.931 490.441ZM257.483 55.0682C217.333 55.0682 178.684 65.3685 146.789 84.9576C115.738 103.903 88.7208 132.045 68.6456 166.257C60.9533 179.316 54.199 193.387 48.6643 207.918C29.0582 258.776 23.7111 314.692 33.7486 365.458C42.8481 411.809 65.7375 444.734 101.76 463.127C149.791 487.774 217.896 484.096 283.938 453.47C350.448 422.845 412.175 363.986 441.162 303.472C465.364 253.074 479.154 178.856 408.047 111.812C375.495 81.1869 330.842 61.5059 282.249 56.3557C273.994 55.528 265.645 55.0682 257.483 55.0682ZM172.868 473.703C147.539 473.703 123.993 468.645 104.106 458.437C70.6156 441.147 48.3828 409.51 39.94 366.929C30.8406 321.13 35.4372 270.548 52.9795 224.472C57.9514 211.229 64.049 198.445 70.9908 186.397C89.1899 154.945 113.862 128.918 142.38 111.26C177.839 89.1881 222.117 79.5315 267.052 83.9459C311.517 88.4523 352.418 106.386 382.343 134.344C447.822 195.778 435.814 265.03 414.238 312.301C388.066 369.504 333.281 422.569 271.273 450.803C237.971 466.07 204.012 473.703 172.868 473.703ZM245.757 92.7748C210.11 92.7748 175.869 102.063 147.539 119.629C120.428 136.459 96.8822 161.198 79.5275 191.272C72.867 202.768 67.0509 215.091 62.2666 227.875C45.381 272.203 40.9719 320.854 49.6962 364.906C57.6699 405.004 77.5575 433.514 108.702 449.608C150.353 471.036 209.641 468.185 267.24 441.883C327.277 414.568 380.186 363.343 405.326 308.254C425.589 263.926 436.94 198.997 375.683 141.609C347.352 115.123 308.422 98.1089 266.114 93.8784C259.266 93.1427 252.511 92.7748 245.757 92.7748ZM170.804 457.057C148.946 457.057 128.684 452.643 111.61 443.814C83.186 429.099 64.3304 402.245 57.0133 366.102C49.2271 327.291 52.9795 284.251 67.7075 244.981C71.9289 233.577 76.9946 222.541 82.9046 212.148C98.2894 185.018 119.303 162.486 143.693 147.127C174.181 127.722 212.174 119.077 250.635 122.664C288.44 126.159 323.337 141.242 349.041 164.969C392.568 205.619 402.325 257.948 377.278 316.347C355.42 367.205 308.14 413.925 253.825 438.204C225.776 450.711 197.164 457.057 170.804 457.057ZM233.843 130.481C202.886 130.481 173.055 138.758 148.383 154.393C125.213 169.016 105.137 190.536 90.4094 216.379C84.7809 226.403 79.8089 236.979 75.7751 247.924C61.6099 285.722 57.9514 327.107 65.4561 364.354C72.3042 398.29 89.1899 422.477 115.55 436.181C150.822 454.39 201.198 452.183 250.354 430.295C301.949 407.211 348.666 361.227 369.398 312.944C393.225 257.396 384.407 209.757 343.225 171.315C318.928 148.783 285.814 134.62 249.885 131.217C244.538 130.757 239.191 130.481 233.843 130.481ZM168.834 440.411C150.447 440.411 133.468 436.732 119.303 429.283C95.9441 417.051 80.3717 394.979 74.1803 365.274C67.6137 333.545 70.6156 298.138 82.4355 265.397C85.9066 255.741 90.128 246.452 94.9122 237.807C107.483 214.999 124.931 195.962 145.194 182.811C170.71 166.165 202.324 158.439 234.313 161.106C265.645 163.682 294.538 175.821 315.833 195.41C351.761 228.427 360.017 270.364 340.411 320.21C322.868 364.814 283.093 405.096 236.564 425.328C213.581 435.445 190.222 440.411 168.834 440.411ZM222.024 168.096C195.757 168.096 170.241 175.361 149.228 189.065C129.903 201.572 113.393 219.69 101.385 241.394C96.7884 249.671 92.7546 258.592 89.4713 267.88C77.9327 299.425 75.1184 333.453 81.4036 363.802C87.1261 391.576 101.01 411.441 122.68 422.753C151.573 437.836 193.037 436.273 233.656 418.615C277.746 399.394 316.958 359.756 333.562 317.635C351.855 270.915 344.257 231.737 310.861 201.02C290.786 182.627 263.393 171.131 233.75 168.648C229.81 168.28 225.87 168.096 222.024 168.096ZM166.864 423.857C152.042 423.857 138.252 420.822 126.901 414.844C108.327 405.004 96.3194 388.174 91.2537 364.63C86.0004 339.983 88.0642 312.025 97.1637 286.09C99.8841 278.273 103.167 270.731 106.826 263.742C116.582 245.348 130.278 229.806 146.601 218.862C167.145 204.975 192.474 198.261 217.896 200.009C242.662 201.664 265.645 210.953 282.53 226.219C310.579 251.602 317.427 283.699 303.45 324.44C290.317 362.791 258.046 396.635 219.209 412.821C201.386 420.086 183.468 423.857 166.864 423.857ZM210.11 205.803C188.534 205.803 167.427 212.148 149.978 223.92C134.593 234.312 121.46 249.119 112.267 266.593C108.702 273.307 105.606 280.48 102.98 288.021C94.2556 312.944 92.2856 339.707 97.2575 363.251C101.854 384.955 112.83 400.405 129.715 409.326C152.23 421.19 184.781 420.27 216.77 406.935C254.012 391.393 284.969 358.928 297.634 322.233C310.673 284.067 304.388 254.085 278.403 230.634C262.549 216.287 240.879 207.55 217.521 205.987C214.988 205.895 212.549 205.803 210.11 205.803ZM164.988 407.303C153.637 407.303 143.13 405.004 134.593 400.405C121.085 393.14 112.267 380.816 108.421 363.802C104.481 346.145 105.7 325.728 111.892 306.507C113.862 300.529 116.113 294.735 118.74 289.401C125.682 275.33 135.813 263.282 147.914 254.545C163.393 243.417 182.342 237.715 201.386 238.451C219.585 239.187 236.564 245.624 249.134 256.66C269.303 274.318 274.838 297.126 266.395 328.303C257.765 360.4 232.999 387.806 201.667 399.946C189.284 404.82 176.714 407.303 164.988 407.303ZM198.102 243.417C181.217 243.417 164.519 248.751 150.822 258.684C139.284 266.961 129.715 278.365 123.149 291.7C120.616 296.85 118.365 302.368 116.582 308.162C110.578 326.556 109.453 345.961 113.205 362.883C116.676 378.425 124.65 389.645 136.939 396.175C153.168 404.82 176.714 404.636 200.072 395.531C229.904 383.943 253.543 357.733 261.799 327.199C269.679 298.046 264.613 276.893 246.039 260.615C234.313 250.315 218.459 244.337 201.292 243.601C200.26 243.417 199.134 243.417 198.102 243.417ZM163.299 390.933C155.513 390.933 148.383 389.277 142.473 386.058C133.937 381.368 128.214 373.643 125.494 363.067C122.774 352.123 123.149 339.707 126.62 327.107C127.745 322.969 129.153 319.014 130.747 315.244C134.875 305.495 141.348 296.942 149.415 290.504C159.734 282.135 172.399 277.445 185.063 277.261C196.789 277.077 207.671 280.664 215.926 287.378C232.155 300.621 231.498 319.382 229.622 332.35C225.87 357.824 208.14 379.437 184.5 387.346C177.183 389.737 170.053 390.933 163.299 390.933ZM185.063 280.848C173.243 281.032 161.329 285.446 151.667 293.355C144.068 299.517 137.971 307.61 134.124 316.715C132.623 320.302 131.31 324.072 130.184 328.119C126.901 340.167 126.526 351.939 129.059 362.239C131.498 371.803 136.563 378.701 144.256 382.932C154.387 388.45 168.646 388.817 183.28 383.851C205.607 376.31 222.305 355.893 225.87 331.798C228.778 312.393 224.932 299.517 213.487 290.229C206.076 283.975 195.945 280.664 185.063 280.848ZM161.986 375.022C156.263 375.022 151.104 373.091 147.445 369.596C143.881 366.194 139.847 359.572 141.442 347.708C141.723 345.593 142.192 343.386 142.755 341.086C146.038 328.579 156.732 318.187 168.646 315.887C174.556 314.692 179.809 315.703 184.031 318.83C188.815 322.325 191.723 328.395 192.661 336.304C195.1 357.916 181.686 371.895 167.145 374.655C165.269 374.93 163.58 375.022 161.986 375.022ZM143.787 347.984C142.661 356.629 144.537 363.434 149.134 367.849C153.355 371.895 159.828 373.459 166.676 372.171C184.406 368.861 191.911 351.755 190.222 336.488C189.378 329.223 186.751 323.797 182.624 320.762C178.965 318.095 174.369 317.267 169.115 318.279C158.046 320.486 148.196 330.05 145.1 341.73C144.443 343.845 143.974 345.961 143.787 347.984Z" fill="black"/>
</svg>
