<svg viewBox="0 0 148 35" fill="none" xmlns="http://www.w3.org/2000/svg"><path d="M55 19.9c0 4.17-.72 6.96-2.12 8.43-1.4 1.46-3.78 2.2-7.08 2.2a10.1 10.1 0 0 1-4.91-1.1 6.18 6.18 0 0 1-2.85-3.15c-.55-1.37-.82-3.49-.82-6.36v-19.13h-4.51v19.15c0 3.5.44 6.29 1.3 8.3a9.34 9.34 0 0 0 4.34 4.66c2.04 1.06 4.65 1.6 7.83 1.6 3.28 0 5.93-.62 7.97-1.83a9.87 9.87 0 0 0 4.2-4.79c.77-1.96 1.17-4.6 1.17-7.92v-19.17h-4.53v19.11Zm-41.85 14.39c2.19 0 4.05-.2 5.56-.56 1.52-.37 2.77-.93 3.79-1.66 1-.74 1.84-1.78 2.53-3.13a9.72 9.72 0 0 0 1.02-4.37c0-1.95-.56-3.65-1.7-5.07a9.06 9.06 0 0 0-4.79-3.05 8.49 8.49 0 0 0 3.63-3.07 7.42 7.42 0 0 0 1.19-4.05c0-1.54-.44-3-1.35-4.41a8.06 8.06 0 0 0-3.74-3.13c-1.6-.67-3.7-1.02-6.33-1.02h-12.96v33.52h13.15Zm-8.58-29.55h6.89c2.48 0 4.22.16 5.24.47 1.02.3 1.8.88 2.34 1.73.56.85.83 1.83.83 2.93 0 1.18-.3 2.14-.89 2.93a4.98 4.98 0 0 1-2.63 1.68c-.88.25-2.32.39-4.35.39h-7.43v-10.13Zm0 14.08h7.97c2.18 0 3.87.2 5.04.56a5.2 5.2 0 0 1 3.73 5.2c0 1.07-.23 2.01-.7 2.82a5.13 5.13 0 0 1-1.74 1.87 7.2 7.2 0 0 1-2.63.9c-.6.12-1.63.16-3.11.16h-8.56v-11.51Zm67.47-3.32v-11.08h10.9c2.55 0 4.41.5 5.6 1.52a4.9 4.9 0 0 1 1.77 3.91c0 1.08-.3 2.09-.92 3.01-.62.93-1.5 1.6-2.69 2-1.17.43-2.8.64-4.9.64h-9.76Zm26.83 18.69-14.2-15.14.67-.06c3.3-.44 5.76-1.48 7.33-3.1a8.35 8.35 0 0 0 2.38-6.02c0-1.85-.48-3.53-1.44-5.05a7.56 7.56 0 0 0-3.84-3.18c-1.6-.6-3.93-.9-7-.9h-15.28v33.5h4.57v-14.88h7.16l14.1 14.83h5.55Zm29.92-7.27a12.75 12.75 0 0 1-9.32 3.95 12.6 12.6 0 0 1-9.06-3.7c-2.63-2.49-4-5.73-4.04-9.62a12.87 12.87 0 0 1 3.71-9.45c2.5-2.58 5.6-3.92 9.27-3.96a12.54 12.54 0 0 1 9.33 3.77 13.08 13.08 0 0 1 3.86 9.46 13.22 13.22 0 0 1-3.75 9.55Zm2.94-21.89a17.96 17.96 0 0 0-12.86-5.03c-4.82.04-8.5 1.81-11.9 5.25a16.58 16.58 0 0 0-5.07 12.28c.06 5.38 2.02 9.77 5.82 13.05a17.4 17.4 0 0 0 11.73 4.42 17.4 17.4 0 0 0 12.5-5.23c3.39-3.4 5.1-7.56 5.04-12.4a17 17 0 0 0-5.26-12.34Zm13.78 29.9a2.28 2.28 0 1 0 0-4.56 2.28 2.28 0 0 0 0 4.55Z" fill="#231F20"/></svg>