<svg viewBox="0 0 133 56" fill="none" xmlns="http://www.w3.org/2000/svg"><path d="M19.14 56c-3.5 0-6.75-.72-9.5-2.17-4.73-2.5-7.85-7.08-9.02-13.3a38.8 38.8 0 0 1 1.93-20.63c2.6-6.93 7.06-12.62 12.54-16.04a27.1 27.1 0 0 1 17.35-3.67 27.5 27.5 0 0 1 16.13 7.42c7.31 7.13 8.81 16.29 4.23 25.79-3.73 7.77-11.28 15.12-19.7 19.17a32.46 32.46 0 0 1-13.96 3.43Zm9.98-54.62c-4.84 0-9.48 1.26-13.34 3.66-5.24 3.26-9.5 8.72-12 15.36a37.57 37.57 0 0 0-1.85 19.87c1.1 5.86 3.9 10 8.3 12.32 5.8 3.06 14.34 2.57 22.3-1.27 8.15-3.93 15.46-11.04 19.09-18.55 3.03-6.3 4.82-15.61-3.96-24.17a26.3 26.3 0 0 0-15.37-7.05 29.64 29.64 0 0 0-3.17-.17Zm-10.19 52.77c-3.12 0-6.01-.64-8.47-1.94-4.18-2.2-6.94-6.27-7.99-11.75a34.62 34.62 0 0 1 3.91-23.1 26.99 26.99 0 0 1 8.86-9.5 24.13 24.13 0 0 1 15.42-3.36c5.52.6 10.6 2.91 14.3 6.51 3.44 3.34 5.43 7.13 5.95 11.29.45 3.67-.26 7.56-2.1 11.54-3.3 7.1-10.04 13.74-17.6 17.32a28.7 28.7 0 0 1-12.28 3Zm8.93-48.57c-4.34 0-8.52 1.15-11.98 3.34a25.61 25.61 0 0 0-8.45 9.07 33.1 33.1 0 0 0-3.78 22.22c.99 5.17 3.46 8.84 7.36 10.9 5.2 2.75 12.57 2.34 19.72-1.08 7.2-3.42 13.87-9.98 17-16.73 2.63-5.63 4.12-13.9-3.57-21.39a23.16 23.16 0 0 0-13.62-6.18c-.9-.1-1.8-.15-2.68-.15Zm-9.15 46.7c-2.74 0-5.3-.56-7.44-1.7-3.63-1.93-6.03-5.46-6.95-10.2a30.1 30.1 0 0 1 3.36-20.14 23.57 23.57 0 0 1 7.73-8.39 21.1 21.1 0 0 1 13.49-3.04c4.81.5 9.24 2.5 12.47 5.62 7.09 6.85 5.79 14.58 3.46 19.85-2.84 6.38-8.77 12.3-15.47 15.45a25.21 25.21 0 0 1-10.65 2.56Zm7.88-42.49c-3.85 0-7.56 1.04-10.62 3a22.46 22.46 0 0 0-7.36 7.99 28.98 28.98 0 0 0-3.23 19.37c.86 4.47 3.01 7.65 6.38 9.45 4.51 2.39 10.93 2.07 17.16-.86 6.5-3.05 12.22-8.77 14.94-14.91 2.2-4.95 3.42-12.19-3.2-18.6a20.05 20.05 0 0 0-11.86-5.32c-.74-.08-1.48-.12-2.2-.12Zm-8.1 40.64c-2.37 0-4.56-.5-6.41-1.48-3.08-1.64-5.12-4.64-5.91-8.67a25.75 25.75 0 0 1 1.16-13.5c.45-1.28 1-2.51 1.64-3.67a20.21 20.21 0 0 1 6.58-7.26 18 18 0 0 1 11.57-2.72c4.1.39 7.87 2.07 10.65 4.71 4.71 4.54 5.77 10.38 3.06 16.9-2.37 5.67-7.49 10.88-13.36 13.59a21.76 21.76 0 0 1-8.99 2.1Zm6.81-36.43c-3.35 0-6.57.92-9.24 2.66a19.42 19.42 0 0 0-6.28 6.92c-.6 1.12-1.14 2.3-1.58 3.52a24.73 24.73 0 0 0-1.12 12.99c.74 3.78 2.57 6.48 5.42 8.01 3.82 2.03 9.27 1.79 14.6-.66 5.57-2.57 10.63-7.7 12.87-13.09 2.58-6.2 1.63-11.5-2.83-15.8a16.98 16.98 0 0 0-11.84-4.55Zm-7.03 34.57c-1.99 0-3.83-.4-5.36-1.24-2.53-1.36-4.21-3.83-4.88-7.14-.71-3.54-.39-7.49.9-11.14.37-1.08.82-2.12 1.34-3.08a17 17 0 0 1 5.44-6.13 15 15 0 0 1 9.65-2.43 14.7 14.7 0 0 1 8.82 3.83c3.88 3.68 4.78 8.36 2.66 13.92a21.98 21.98 0 0 1-11.24 11.73 17.93 17.93 0 0 1-7.33 1.68Zm5.76-30.38c-2.85 0-5.6.81-7.88 2.34a16.17 16.17 0 0 0-5.18 5.84c-.5.92-.93 1.92-1.29 2.96a20.45 20.45 0 0 0-.87 10.7c.62 3.1 2.12 5.31 4.47 6.57 3.12 1.68 7.6 1.51 12-.46a21.5 21.5 0 0 0 10.82-11.26c1.98-5.22 1.15-9.59-2.46-13.01a13.88 13.88 0 0 0-9.61-3.68Zm-5.97 28.54c-1.6 0-3.1-.34-4.33-1.01-2-1.1-3.3-2.98-3.86-5.6a17 17 0 0 1 .64-8.76c.3-.88.65-1.72 1.05-2.5a13.65 13.65 0 0 1 4.3-5 12.04 12.04 0 0 1 7.72-2.1 11.4 11.4 0 0 1 7 2.92c3.03 2.83 3.77 6.41 2.26 10.95a16.85 16.85 0 0 1-9.12 9.86 14.78 14.78 0 0 1-5.66 1.24Zm4.68-24.33c-2.34 0-4.62.7-6.51 2.02a13 13 0 0 0-4.08 4.76c-.39.75-.72 1.55-1 2.4a16.36 16.36 0 0 0-.63 8.38c.5 2.43 1.69 4.15 3.52 5.14 2.43 1.33 5.96 1.23 9.42-.26a16.22 16.22 0 0 0 8.75-9.45c1.4-4.26.73-7.6-2.08-10.22a10.73 10.73 0 0 0-6.6-2.75l-.8-.02Zm-4.89 22.48a6.78 6.78 0 0 1-3.29-.77 5.83 5.83 0 0 1-2.83-4.08 12.8 12.8 0 0 1 .38-6.4c.21-.66.45-1.3.74-1.9a10.5 10.5 0 0 1 3.16-3.9 9.13 9.13 0 0 1 5.78-1.79c1.97.08 3.8.8 5.17 2.03 2.18 1.97 2.78 4.52 1.87 8a11.98 11.98 0 0 1-7 7.99c-1.35.54-2.7.82-3.98.82Zm3.59-18.28c-1.83 0-3.64.6-5.12 1.7a9.86 9.86 0 0 0-3 3.68c-.27.58-.51 1.2-.7 1.84a12.13 12.13 0 0 0-.37 6.1 5.25 5.25 0 0 0 2.57 3.72c1.75.96 4.3.94 6.83-.07a11.46 11.46 0 0 0 6.68-7.63c.85-3.25.3-5.6-1.7-7.43a7.68 7.68 0 0 0-4.85-1.9l-.34-.01Zm-3.77 16.45c-.84 0-1.61-.18-2.25-.54a3.87 3.87 0 0 1-1.84-2.57 8.2 8.2 0 0 1 .12-4c.12-.47.28-.91.45-1.33a7.04 7.04 0 0 1 2.02-2.76 6.2 6.2 0 0 1 3.86-1.48 5.03 5.03 0 0 1 3.34 1.13c1.75 1.48 1.68 3.57 1.48 5.02a7.6 7.6 0 0 1-4.88 6.13c-.8.27-1.57.4-2.3.4Zm2.36-12.28a5.8 5.8 0 0 0-3.62 1.4 6.74 6.74 0 0 0-1.9 2.6c-.16.4-.3.82-.42 1.28a7.86 7.86 0 0 0-.12 3.8 3.46 3.46 0 0 0 1.64 2.31c1.1.62 2.64.66 4.22.1a7.2 7.2 0 0 0 4.61-5.8c.32-2.17-.1-3.6-1.34-4.64-.8-.7-1.9-1.07-3.07-1.05Zm-2.5 10.5c-.62 0-1.18-.2-1.57-.6-.39-.38-.83-1.12-.65-2.44.03-.24.08-.48.14-.74a3.86 3.86 0 0 1 2.8-2.8c.64-.14 1.2-.03 1.66.32.52.39.84 1.07.94 1.95.26 2.4-1.19 3.97-2.76 4.28-.2.03-.39.04-.56.04Zm-1.97-3c-.12.96.08 1.71.58 2.2a2.1 2.1 0 0 0 1.9.49c1.91-.37 2.73-2.28 2.54-3.98-.09-.81-.37-1.42-.82-1.76-.4-.3-.9-.39-1.46-.27a3.6 3.6 0 0 0-2.6 2.61c-.07.24-.12.48-.14.7Zm60.91-33.05h-3.32v22.4h3.32v-22.4Zm23.83 13.04 5.33 9.36h-2.38a2.2 2.2 0 0 1-1.92-1.12l-4.48-7.84h-7.66v8.96h-3.32v-22.4h12.17a6.69 6.69 0 0 1 6.64 6.72 6.68 6.68 0 0 1-4.39 6.32Zm-11.1-1.84h7.74a4.46 4.46 0 0 0 4.43-4.49 4.46 4.46 0 0 0-4.43-4.48h-7.74v8.97Zm29.08 6.66a9.48 9.48 0 0 1 0-13.31c3.64-3.67 8.85-3.67 12.49 0l2.23-1.58c-4.5-4.54-12.9-4.54-17.38 0a11.75 11.75 0 0 0 0 16.48c4.5 4.54 12.9 4.54 17.38 0l-2.23-1.58c-3.64 3.66-8.87 3.66-12.49-.01Zm13.02 22.46h-5.94v.84h4.79l-3.85 4.77h1.13l3.84-4.76v-.85h.02Zm-52.15 4.76h-4.84c.24-.5.72-.88 1.43-1.11.75-.2 1.32-.35 1.7-.43 1.04-.28 1.57-.8 1.57-1.54 0-.53-.25-.96-.73-1.3a3.27 3.27 0 0 0-1.9-.5c-1.06 0-2.04.34-2.95 1l.62.63a3.67 3.67 0 0 1 2.3-.79c.5 0 .9.09 1.17.25.29.16.42.38.42.65 0 .25-.14.46-.43.6-.18.1-.46.2-.84.3l-1.06.28c-1.58.47-2.4 1.4-2.46 2.8h6v-.84Zm26.05-1.1h-1.34v-3.66h-.98l-3.89 3.67v.83h3.9v1.1h.97v-1.1h1.35v-.83Zm-5.16 0 2.84-2.7v2.7h-2.84Z" fill="#000"/></svg>