<svg viewBox="0 0 113 19" fill="none" xmlns="http://www.w3.org/2000/svg"><path d="M21.25 12.16c1.68 0 2.8-.59 3.22-4.27l.37-3.22h3v7.33h1.52v-8.67h-5.89l-.5 4.46c-.3 2.56-.78 3.02-1.72 3.02v1.35Zm17.45-.16v-1.34h-4.42v-2.4h4.33v-1.34h-4.33v-2.25h4.42v-1.34h-5.94v8.67h5.94Zm6.71 0v-7.33h2.63v-1.34h-6.77v1.34h2.62v7.33h1.52Zm14.76 0c1.62 0 2.52-1 2.52-2.34 0-1.06-.75-1.99-1.68-2.13.81-.17 1.51-.9 1.51-1.99 0-1.22-.88-2.2-2.47-2.2h-4.26v8.66h4.38Zm-.43-5.08h-2.43v-2.25h2.43c.78 0 1.22.48 1.22 1.13 0 .65-.44 1.12-1.22 1.12Zm.07 3.74h-2.5v-2.4h2.5c.87 0 1.32.54 1.32 1.2 0 .75-.5 1.2-1.32 1.2Zm14.98 1.34v-8.67h-2.15l-2.36 5.7-2.36-5.7h-2.14v8.67h1.52v-6.43l2.65 6.43h.65l2.67-6.43v6.43h1.52Zm9.34 0v-1.34h-4.42v-2.4h4.33v-1.34h-4.33v-2.25h4.42v-1.34h-5.94v8.67h5.94Zm7.29.16c1.75 0 2.82-.91 3.48-1.95l-1.3-.67a2.55 2.55 0 0 1-2.18 1.27c-1.72 0-3-1.32-3-3.14s1.28-3.13 3-3.13c.93 0 1.76.55 2.18 1.26l1.3-.66a3.92 3.92 0 0 0-3.48-1.95 4.37 4.37 0 0 0-4.55 4.48 4.37 4.37 0 0 0 4.55 4.49Zm9.84-.16v-7.33h2.63v-1.34h-6.77v1.34h2.62v7.33h1.53Zm11.42 0v-1.34h-4.42v-2.4h4.33v-1.34h-4.33v-2.25h4.42v-1.34h-5.94v8.67h5.94Zm-99.38-4.03c.85-4.19-1.67-6.83-5.27-7.57-3.6-.73-6.98.85-7.75 4.64a5.39 5.39 0 0 0 4.33 6.5c.66.13 1.34.12 1.77-.06l.04.06c-1.36 1.36-3.88 3.03-6.34 4.29l3.26 2.4c3.98-2.1 9.1-6.05 9.96-10.26Zm-3.9-1.14a2.51 2.51 0 0 1-3.12 2.03 2.5 2.5 0 0 1-2.04-3.06c.3-1.5 1.56-2.4 3.12-2.08a2.55 2.55 0 0 1 2.03 3.1Z" fill="#FFAF27"/></svg>