<svg viewBox="0 0 216 40" fill="none" xmlns="http://www.w3.org/2000/svg"><g clip-path="url(#a)"><path fill-rule="evenodd" clip-rule="evenodd" d="m129.5 7-10.18 26.61h-4.14l10.16-26.6h4.15Zm-27.98 13.04c0-2.06 1.5-4.23 4.12-4.23s4.05 1.88 4.05 4.23c0 2.35-1.4 4.23-4.05 4.23s-4.12-2.16-4.12-4.23Zm.06-5.42v-1.49h-3.87v20.47h4.01v-7.96a6.48 6.48 0 0 0 4.42 1.7 6.98 6.98 0 0 0 7.13-7.3c0-4.84-3.76-7.24-7.13-7.24a6.34 6.34 0 0 0-4.56 1.82Zm-16.7 3.9c.1-.93 1.1-2.8 3.53-2.8 2.72 0 3.16 2.03 3.22 2.8h-6.76Zm-4 1.58c0 4.13 3.08 7.23 7.67 7.23 4.6 0 6.55-3.13 6.55-3.13l-2.92-1.9s-1 1.97-3.6 1.97c-2.68 0-3.75-2.2-3.75-3.04h10.6s.06-.6.06-.78v-.46c0-4.1-2.6-7.19-7.08-7.19-4.49 0-7.54 3.17-7.54 7.3Zm-5.54-6.97 5.3 13.87h-4.3l-3.09-8.84h-.05l-3.07 8.84h-4.3l5.31-13.87h4.2Zm-21.01 7.12c0-1.98 1.14-3.71 3.78-3.71 2.63 0 3.58 2.25 3.58 3.85s-.97 3.88-3.61 3.88c-2.64 0-3.75-2.04-3.75-4.02Zm.4-5.93c.1-.47.52-4.19 5.74-4.19h3.23l1.2-3.13h-4.37c-5.76 0-10.13 2.55-10.13 11.5 0 4.92 2.19 8.83 7.56 8.83 5.12 0 7.63-3.58 7.63-7.07 0-5.05-3.89-7.13-7.16-7.13a6.47 6.47 0 0 0-3.7 1.19Zm-10.27-1.19h3.43v13.88h-4.02v-8.13l-3.89 4.88h-1.08l-.1-.1-3.82-4.71v8.06h-4.02v-13.88h3.43l.09.1 4.98 5.76 5-5.86Zm-20.55 8.1c0 1.89-1.1 3.2-3.23 3.2-2.07 0-2.25-1.17-2.25-1.61 0-1.03.97-1.71 3.28-1.91a22.2 22.2 0 0 1 1.93-.09h.27v.4Zm3.76-1.52-.01-.8c-.2-4.32-2.1-6.1-6.21-6.1a9.15 9.15 0 0 0-5.23 1.53l1.08 2.83s1.7-1.38 3.83-1.38c3.03 0 2.73 2.4 2.73 2.4-1.04 0-9.27-.4-9.27 4.74 0 2.85 2.45 4.4 5.2 4.4a5.62 5.62 0 0 0 4.2-1.63l.08 1.3h3.74s-.14-1.2-.14-3.08v-4.2Zm-23.51-3.08v-6.27h2.05c1.45 0 3.8.85 3.8 3.15 0 2.31-2.35 3.12-3.86 3.12h-2Zm201.93-1.25 2.19.69s-2.62 6.4-2.85 7.1c-.18.42 3.03-2.12 5.35-5.8.76-1.2.84-1.25.84-1.25l2.06.64c-.18.37-2.95 4.62-3.17 7.2-.18 2.13 1.83 1.8 1.83 1.8l.9-2.12 2.31.79c-.49 1.01-1.43 2.72-4.2 2.72-2.54 0-3.07-1.39-2.94-2.91.1-1.1.54-2.12.54-2.12-1.43 1.8-4.31 3.57-5.02 3.45-.99-.17-1.32-.87-1.32-.87l.35-.94 3.13-8.38Zm-199.6-8.38c4.16 0 7.71 2.2 7.71 6.5 0 4.28-3.55 6.45-7.8 6.45h-2.24v7.05h-4.16v-20h6.5Zm133.72 8c.58 0 1.84.57 1.84 2.89 0 .73-.06 1.1-.25 1.78.48-.04.96-.06 1.42-.08l1.16-3.54 2.02.78-.96 2.75 1.06.04c1.14-2.98 3.84-4.47 5.92-4.47 2.31 0 .84 3 .68 3.3l-.01.02-1.64-.47s.63-1.24.61-1.24c-2.19.49-4.3 4.24-3.48 7.25l2.26-2.12 1.48 1.57s-1.94 2.43-4.35 2.43c-.5 0-2.14-.8-2-3.62.01-.34.04-.67.1-.99h-1.22l-1.35 3.88-1.88-.7 1.03-3.14c-.48.02-.97.04-1.46.08-1.33 3.05-3.57 4.47-5.24 4.47-2.42 0-2.6-2.9-.46-4.5a10.48 10.48 0 0 1 3.82-1.45c.51-1.5.86-2.93.44-3.18-.34-.19-1.68 2.37-1.68 2.37l-1.9-.58c1.06-2.68 2.56-3.52 4.04-3.52Zm40.4.06c1.15 0 1.45.51 1.36 1.33a5.8 5.8 0 0 1-1.2 2.73l-1.7-.55s1.33-2.04 1.31-2.04c-2.64.27-5.45 4.23-4.3 7.53l2.84-1.72.66 1s-1.83 2.46-3.98 2.46c-.54 0-2.22-.54-2.22-3.11 0-4.53 3.35-7.63 7.23-7.63Zm-20.49-.01c2.5 0 2.41 2.45 1.34 3.89a7.04 7.04 0 0 1-5.55 2.79c-.2.55-.26 1.7.1 2.33l4.28-1.68.51 1.18c-.86.6-3.21 2.24-5.28 2.24-.76 0-2.05-.59-2.05-2.77.01-5.08 3.86-7.98 6.65-7.98Zm34.82.37 2.19.74s-2.72 6.51-3.08 7.2c-.18.32 3.66-1.7 5.98-6.14l.63-1.1 2 .64-3.09 6.9 1.84-.76.63.97s-.29.24-1.33.93c-.9.6-1.82.94-1.82.94l-1.7-1.15s1.2-2.78 1.11-2.69c-.76 1.02-3.91 3.67-4.87 3.72-1.93.11-1.79-1.57-1.47-2.35l2.98-7.85Zm-30.1-.09 2.14.78-1.35 3.68s.52.3 1.55.29c1.06-.02 1.8-.44 1.8-.44l1.53-3.9 2.15.73-2.77 6.93 1.83-.78.58.83s-.28.33-1.44 1.11a18.65 18.65 0 0 1-1.78 1.11l-1.74-1.15 1.08-3s-.5.27-1.62.35a6.45 6.45 0 0 1-1.87-.22l-1.43 4.02-2-.7 3.34-9.64Zm19.46 0 2.14.78-1.05 2.9 4.7-3.49 1.62.58-1.64 4.28-1.64-.48.64-1.53-2.98 2.14 2.18 3 2.28-.9.53 1.24s-1.24.95-2.08 1.52c-.9.61-1.78.2-2.29-.46-.78-1.01-1.82-2.47-2.32-3.17l-1.43 3.93-2-.7 3.34-9.64Zm-45.36 6.37c-1.28.38-2.9 1.4-2.6 2.53 0 0 2.07-.7 2.6-2.54Zm21.23-4.06c.3-.86-.26-1.03-.95-.73a6.03 6.03 0 0 0-2.75 3.07c1.66-.3 3.25-1.04 3.7-2.34Zm48.6-7.2 2.63.88-.8 1.56 3.84-1.29.62.97c-.31.55-2.63 1.75-4.6 1.75-1.47 0-2.36-.78-2.27-2.03.09-1.1.58-1.84.58-1.84Z" fill="#C60D8B"/></g><g clip-path="url(#b)"><path fill-rule="evenodd" clip-rule="evenodd" d="m129.5 7-10.18 26.61h-4.14l10.16-26.6h4.15Zm-27.98 13.04c0-2.06 1.5-4.23 4.12-4.23s4.05 1.88 4.05 4.23c0 2.35-1.4 4.23-4.05 4.23s-4.12-2.16-4.12-4.23Zm.06-5.42v-1.49h-3.87v20.47h4.01v-7.96a6.48 6.48 0 0 0 4.42 1.7 6.98 6.98 0 0 0 7.13-7.3c0-4.84-3.76-7.24-7.13-7.24a6.34 6.34 0 0 0-4.56 1.82Zm-16.7 3.9c.1-.93 1.1-2.8 3.53-2.8 2.72 0 3.16 2.03 3.22 2.8h-6.76Zm-4 1.58c0 4.13 3.08 7.23 7.67 7.23 4.6 0 6.55-3.13 6.55-3.13l-2.92-1.9s-1 1.97-3.6 1.97c-2.68 0-3.75-2.2-3.75-3.04h10.6s.06-.6.06-.78v-.46c0-4.1-2.6-7.19-7.08-7.19-4.49 0-7.54 3.17-7.54 7.3Zm-5.54-6.97 5.3 13.87h-4.3l-3.09-8.84h-.05l-3.07 8.84h-4.3l5.31-13.87h4.2Zm-21.01 7.12c0-1.98 1.14-3.72 3.78-3.72 2.63 0 3.58 2.25 3.58 3.86 0 1.6-.97 3.88-3.61 3.88-2.64 0-3.75-2.04-3.75-4.02Zm.4-5.94c.1-.46.52-4.18 5.74-4.18h3.23l1.2-3.13h-4.37c-5.76 0-10.13 2.55-10.13 11.5 0 4.92 2.19 8.83 7.56 8.83 5.12 0 7.63-3.58 7.63-7.07 0-5.05-3.89-7.13-7.16-7.13a6.53 6.53 0 0 0-3.7 1.18Zm-10.27-1.18h3.43v13.87h-4.02v-8.12l-3.89 4.88h-1.08l-.1-.1-3.82-4.71v8.05h-4.02v-13.87h3.43l.09.1 4.98 5.76 5-5.86Zm-20.55 8.1c0 1.89-1.1 3.2-3.23 3.2-2.07 0-2.25-1.17-2.25-1.61 0-1.03.97-1.71 3.28-1.92a22.2 22.2 0 0 1 1.93-.08h.27v.4Zm3.76-1.52-.01-.8c-.2-4.33-2.1-6.1-6.21-6.1a9.15 9.15 0 0 0-5.23 1.53l1.08 2.83s1.7-1.38 3.83-1.38c3.03 0 2.73 2.4 2.73 2.4-1.04 0-9.27-.4-9.27 4.74 0 2.85 2.45 4.4 5.2 4.4a5.62 5.62 0 0 0 4.2-1.64l.08 1.31h3.74s-.14-1.2-.14-3.08v-4.2Zm-23.51-3.08v-6.28h2.05c1.45 0 3.8.86 3.8 3.16 0 2.31-2.35 3.12-3.86 3.12h-2Zm201.93-1.25 2.19.69s-2.62 6.4-2.85 7.1c-.18.41 3.03-2.12 5.35-5.8.76-1.2.84-1.26.84-1.26l2.06.65c-.18.37-2.95 4.62-3.17 7.2-.18 2.13 1.83 1.8 1.83 1.8l.9-2.12 2.31.78c-.49 1.02-1.43 2.73-4.2 2.73-2.54 0-3.07-1.39-2.94-2.91.1-1.1.54-2.12.54-2.12-1.43 1.8-4.31 3.57-5.02 3.45-.99-.17-1.32-.87-1.32-.87l.35-.94 3.13-8.38Zm-199.6-8.38c4.16 0 7.71 2.2 7.71 6.5 0 4.28-3.55 6.45-7.8 6.45h-2.24v7.05h-4.16v-20h6.5Zm133.72 8c.58 0 1.84.57 1.84 2.89 0 .73-.06 1.1-.25 1.78.48-.04.96-.06 1.42-.08l1.16-3.54 2.02.78-.96 2.75 1.06.04c1.14-2.98 3.84-4.47 5.92-4.47 2.31 0 .84 3 .68 3.3l-.01.02-1.64-.47s.63-1.24.61-1.24c-2.19.49-4.3 4.24-3.48 7.25l2.26-2.12 1.48 1.57s-1.94 2.43-4.35 2.43c-.5 0-2.14-.8-2-3.62.01-.34.04-.67.1-.99h-1.22l-1.35 3.88-1.88-.7 1.03-3.14c-.48.02-.97.04-1.46.08-1.33 3.05-3.57 4.47-5.24 4.47-2.42 0-2.6-2.9-.46-4.5a10.48 10.48 0 0 1 3.82-1.45c.51-1.5.86-2.93.44-3.18-.34-.19-1.68 2.37-1.68 2.37l-1.9-.58c1.06-2.68 2.56-3.52 4.04-3.52Zm40.4.06c1.15 0 1.45.51 1.36 1.33a5.8 5.8 0 0 1-1.2 2.73l-1.7-.55s1.33-2.04 1.31-2.04c-2.64.27-5.45 4.23-4.3 7.53l2.84-1.72.66 1s-1.83 2.46-3.98 2.46c-.54 0-2.22-.54-2.22-3.11 0-4.53 3.35-7.63 7.23-7.63Zm-20.49-.01c2.5 0 2.41 2.45 1.34 3.89a7.04 7.04 0 0 1-5.55 2.79c-.2.55-.26 1.7.1 2.33l4.28-1.68.51 1.18c-.86.6-3.21 2.24-5.28 2.24-.76 0-2.05-.59-2.05-2.77.01-5.08 3.86-7.98 6.65-7.98Zm34.82.37 2.19.74s-2.72 6.51-3.08 7.2c-.18.32 3.66-1.7 5.98-6.14l.63-1.1 2 .64-3.09 6.9 1.84-.76.63.97s-.29.24-1.33.93c-.9.6-1.82.94-1.82.94l-1.7-1.15s1.2-2.78 1.11-2.69c-.76 1.02-3.91 3.67-4.87 3.72-1.93.11-1.79-1.57-1.47-2.35l2.98-7.85Zm-30.1-.09 2.14.78-1.35 3.68s.52.3 1.55.29c1.06-.02 1.8-.44 1.8-.44l1.53-3.9 2.15.73-2.77 6.93 1.83-.78.58.83s-.28.33-1.44 1.11a18.65 18.65 0 0 1-1.78 1.11l-1.74-1.15 1.08-3s-.5.27-1.62.35a6.45 6.45 0 0 1-1.87-.22l-1.43 4.02-2-.7 3.34-9.64Zm19.46 0 2.14.78-1.05 2.9 4.7-3.49 1.62.58-1.64 4.28-1.64-.48.64-1.53-2.98 2.14 2.18 3 2.28-.9.53 1.24s-1.24.95-2.08 1.52c-.9.61-1.78.2-2.29-.46-.78-1.01-1.82-2.47-2.32-3.17l-1.43 3.93-2-.7 3.34-9.64Zm-45.36 6.37c-1.28.38-2.9 1.4-2.6 2.53 0 0 2.07-.7 2.6-2.54Zm21.23-4.06c.3-.86-.26-1.03-.95-.73a6.03 6.03 0 0 0-2.75 3.07c1.66-.3 3.25-1.04 3.7-2.34Zm48.6-7.2 2.63.88-.8 1.56 3.84-1.29.62.97c-.31.55-2.63 1.75-4.6 1.75-1.47 0-2.36-.78-2.27-2.03.09-1.1.58-1.84.58-1.84Z" fill="#C60D8B"/></g><defs><clipPath id="a"><path fill="#fff" d="M0 0h130v40h-130z"/></clipPath><clipPath id="b"><path fill="#fff" transform="translate(130)" d="M0 0h86v40h-86z"/></clipPath></defs></svg>