<svg viewBox="0 0 135 35" fill="none" xmlns="http://www.w3.org/2000/svg"><path fill-rule="evenodd" clip-rule="evenodd" d="M45 35v-34.95h11.93c8.4 0 13.2 3.76 13.2 11.14v.2c0 7.38-5.08 10.9-12.96 10.9h-4.4v12.71h-7.77Zm7.78-18.23h3.96c3.82 0 5.84-1.86 5.84-5.33v-.2c0-3.71-2.12-5.18-5.84-5.18h-3.96v10.7Zm48.06 7.43c0 6.84-4.4 10.8-12.94 10.8h-12.66v-34.95h22.51v6.16h-14.73l-.05 7.33h5.17c7.97 0 12.7 3.47 12.7 10.46v.2Zm-17.87 4.79h4.64c3.82 0 5.75-1.66 5.75-4.84v-.2c0-3.13-1.93-4.84-5.94-4.84h-4.45v9.88Zm23.14 6.01v-34.95h7.83v15.05l12.07-15.1h8.31l-13.67 16.57 14.35 18.43h-9.13l-11.93-15.7v15.7h-7.83Z" fill="#000"/><path fill-rule="evenodd" clip-rule="evenodd" d="M32.27.1h-32.18v32.17l32.18-32.18Z" fill="#92CFAE"/><path fill-rule="evenodd" clip-rule="evenodd" d="M2.77 34.96h32.19v-32.19l-32.19 32.19Z" fill="#2A8288"/></svg>