<svg viewBox="0 0 126 35" fill="none" xmlns="http://www.w3.org/2000/svg"><path d="m124.5 34.44-6.25-21.34c1.92-.61 3.83-1.76 4.82-3.32 1.17-1.84 1.36-4.59-.72-6.32-1.93-1.61-5.24-1.55-6.7-1.55h-7.53v.57h1.45v31.96h-1.43v.56h7.52v-.56h-1.44v-31.96h1.42c4.29.01 5.75 5.37 3.64 8.26-1.76 2.4-4.99 2.91-4.99 2.91l5.62 20.79h-1.51v.56h7.59v-.56h-1.48Zm-27.58-32.53h-10.14v.56h1.44v31.96h-1.44v.57h11.22v-6.94h-.57v6.37h-4.56v-20.06h2.6v4h.57v-8.57h-.57v4h-2.6v-11.33h4.56v6.38h.57v-6.94h-1.08Zm-31.29 0v.56h1.44v31.96h-1.44v.57h11.23v-6.94h-.57v6.37h-4.57v-31.96h1.43v-.56h-7.52Zm-23.45 0v6.94h.57v-6.36h3.23v31.94h-1.43v.57h7.52v-.57h-1.44v-31.94h3.23v6.36h.57v-6.94h-12.25Zm-17.27 12.24 1.41 8.39h-2.9l1.5-8.39Zm-4.18 20.28h-1.44v.57h3.52v-.56h-1.5l2-11.33h3.1l1.9 11.32h-1.55v.57h7.52v-.57h-1.32l-6.04-33.55h-.28l-5.9 33.55Zm-20.73-32.52v6.94h.57v-6.36h3.23v31.94h-1.44v.57h7.52v-.57h-1.43v-31.94h3.23v6.36h.57v-6.94h-12.25Z" fill="#000"/></svg>